<?xml version="1.0" encoding="UTF-8"?>
<svg width="18px" height="18px" viewBox="0 0 18 18" version="1.1" xmlns="http://www.w3.org/2000/svg" xmlns:xlink="http://www.w3.org/1999/xlink">
    <!-- Generator: Sketch 54.1 (76490) - https://sketchapp.com -->
    <title>nav-account</title>
    <desc>Created with Sketch.</desc>
    <g id="Page-1" stroke="none" stroke-width="1" fill="none" fill-rule="evenodd">
        <g id="nav-account" fill="#2B2B2B">
            <path d="M9,2.09 C7.768,2.09 6.767,3.091 6.767,4.32 C6.8031337,5.52723882 7.79222054,6.48716438 9,6.48716438 C10.2077795,6.48716438 11.1968663,5.52723882 11.233,4.32 C11.233,3.091 10.232,2.09 9,2.09 M9,8.203 C6.85567611,8.20190071 5.11685939,6.4653207 5.113,4.321 C5.11685834,2.17651709 6.85551426,0.439650375 9,0.438 C11.1444857,0.439650375 12.8831417,2.17651709 12.887,4.321 C12.8831406,6.4653207 11.1443239,8.20190071 9,8.203 M16.452,17.729 C15.9952605,17.729 15.625,17.3587395 15.625,16.902 C15.625,13.75 12.88,11.086 9.63,11.086 L8.37,11.086 C5.12,11.086 2.375,13.75 2.375,16.902 C2.37500001,17.1974586 2.2173747,17.4704737 1.96150001,17.618203 C1.70562531,17.7659323 1.39037469,17.7659323 1.13449999,17.618203 C0.878625302,17.4704737 0.720999994,17.1974586 0.721,16.902 C0.721,12.853 4.224,9.432 8.371,9.432 L9.63,9.432 C13.776,9.432 17.279,12.853 17.279,16.902 C17.279,17.359 16.909,17.729 16.452,17.729" id="Shape"></path>
        </g>
    </g>
</svg>