<svg width="42" height="42" viewBox="0 0 42 42" fill="none" xmlns="http://www.w3.org/2000/svg">
<g clip-path="url(#clip0_1302_1439)">
<path d="M34.125 0H7.875C3.52576 0 0 3.52576 0 7.875V34.125C0 38.4742 3.52576 42 7.875 42H34.125C38.4742 42 42 38.4742 42 34.125V7.875C42 3.52576 38.4742 0 34.125 0Z" fill="#1F7EE6"/>
<path d="M11.192 32H17.24L19.292 23.216C19.724 21.344 20.012 19.472 20.408 17.348H20.588C20.984 19.472 21.308 21.308 21.74 23.216L23.864 32H30.092L35.06 11.84H30.164L27.968 21.812C27.572 23.756 27.32 25.7 26.96 27.68H26.78C26.348 25.7 25.988 23.756 25.52 21.812L23 11.84H18.284L15.872 21.812C15.368 23.72 15.008 25.7 14.612 27.68H14.468C14.108 25.7 13.856 23.756 13.46 21.812L11.264 11.84H5.972L11.192 32Z" fill="white"/>
</g>
<defs>
<clipPath id="clip0_1302_1439">
<rect width="42" height="42" fill="white"/>
</clipPath>
</defs>
</svg>
