<svg width="42" height="42" viewBox="0 0 42 42" fill="none" xmlns="http://www.w3.org/2000/svg">
<path fill-rule="evenodd" clip-rule="evenodd" d="M7.875 0H34.125C38.4742 0 42 3.52576 42 7.875V34.125C42 38.4742 38.4742 42 34.125 42H7.875C3.52576 42 0 38.4742 0 34.125V7.875C0 3.52576 3.52576 0 7.875 0Z" fill="#7C46FE"/>
<path d="M5.22131 30.7954L12.2467 19.7554C12.6359 19.1439 13.4471 18.9636 14.0587 19.3528C14.1395 19.4042 14.2144 19.4643 14.2821 19.532L18.5815 23.8313C19.094 24.3439 19.9251 24.3439 20.4376 23.8313C20.4917 23.7773 20.5409 23.7186 20.5848 23.6559L27.6115 13.6178C28.0272 13.024 28.8455 12.8795 29.4394 13.2952C29.6182 13.4204 29.763 13.5882 29.8607 13.7835L38.4254 30.9131C38.7496 31.5614 38.4868 32.3498 37.8385 32.674C37.6562 32.7651 37.4553 32.8125 37.2515 32.8125H6.32861C5.60374 32.8125 5.01611 32.2249 5.01611 31.5C5.01611 31.2504 5.08729 31.006 5.22131 30.7954Z" fill="white"/>
<path d="M11.8125 14.4375C13.2622 14.4375 14.4375 13.2622 14.4375 11.8125C14.4375 10.3628 13.2622 9.1875 11.8125 9.1875C10.3628 9.1875 9.1875 10.3628 9.1875 11.8125C9.1875 13.2622 10.3628 14.4375 11.8125 14.4375Z" fill="white"/>
</svg>
