<svg width="42" height="42" viewBox="0 0 42 42" fill="none" xmlns="http://www.w3.org/2000/svg">
<g clip-path="url(#clip0_1302_1448)">
<path d="M34.125 0H7.875C3.52576 0 0 3.52576 0 7.875V34.125C0 38.4742 3.52576 42 7.875 42H34.125C38.4742 42 42 38.4742 42 34.125V7.875C42 3.52576 38.4742 0 34.125 0Z" fill="#FF803C"/>
<path d="M22.3574 8.22559C24.3613 8.22559 26.1302 8.59049 27.6641 9.32031C29.1979 10.0501 30.3854 11.083 31.2266 12.4189C32.0801 13.7425 32.5068 15.2764 32.5068 17.0205C32.5068 18.8512 32.0863 20.4593 31.2451 21.8447C30.404 23.2301 29.2165 24.3063 27.6826 25.0732C26.1488 25.8402 24.3799 26.2236 22.376 26.2236H18.2012V35H12.5977V8.22559H22.3574ZM22.1904 21.4365C23.1182 21.4365 23.9408 21.2633 24.6582 20.917C25.3757 20.5583 25.9261 20.0697 26.3096 19.4512C26.7054 18.8327 26.9033 18.1276 26.9033 17.3359C26.9033 16.4824 26.6992 15.7279 26.291 15.0723C25.8952 14.4167 25.3324 13.9095 24.6025 13.5508C23.8727 13.1921 23.0316 13.0127 22.0791 13.0127H18.2939V21.4365H22.1904Z" fill="white"/>
</g>
<defs>
<clipPath id="clip0_1302_1448">
<rect width="42" height="42" fill="white"/>
</clipPath>
</defs>
</svg>
