<svg width="42" height="42" viewBox="0 0 42 42" fill="none" xmlns="http://www.w3.org/2000/svg">
<path d="M34.125 0H7.875C3.52576 0 0 3.52576 0 7.875V34.125C0 38.4742 3.52576 42 7.875 42H34.125C38.4742 42 42 38.4742 42 34.125V7.875C42 3.52576 38.4742 0 34.125 0Z" fill="#14467D"/>
<path d="M21 34.125C28.2487 34.125 34.125 28.2487 34.125 21C34.125 13.7513 28.2487 7.875 21 7.875C13.7513 7.875 7.875 13.7513 7.875 21C7.875 28.2487 13.7513 34.125 21 34.125Z" stroke="white" stroke-width="3"/>
<path d="M21 26.25C23.8995 26.25 26.25 23.8995 26.25 21C26.25 18.1005 23.8995 15.75 21 15.75C18.1005 15.75 15.75 18.1005 15.75 21C15.75 23.8995 18.1005 26.25 21 26.25Z" fill="white"/>
</svg>
