<svg width="42" height="42" viewBox="0 0 42 42" fill="none" xmlns="http://www.w3.org/2000/svg">
<path d="M34.125 0H7.875C3.52576 0 0 3.52576 0 7.875V34.125C0 38.4742 3.52576 42 7.875 42H34.125C38.4742 42 42 38.4742 42 34.125V7.875C42 3.52576 38.4742 0 34.125 0Z" fill="#FF2F2F"/>
<path d="M28.281 23.2917C27.0305 22.3076 25.842 21.2959 25.0506 20.5044C24.0216 19.4755 23.1048 18.4782 22.3081 17.5285C23.5508 13.6885 24.0956 11.7085 24.0956 10.6532C24.0956 6.1695 22.4757 5.25 20.0433 5.25C18.1951 5.25 15.9909 6.21028 15.9909 10.7825C15.9909 12.7981 17.095 15.2451 19.2834 18.0891C18.7479 19.7235 18.1186 21.6086 17.4116 23.7336C17.0712 24.7533 16.702 25.6978 16.3114 26.571C15.9936 26.7122 15.6848 26.856 15.3867 27.005C14.313 27.5419 13.2933 28.0247 12.3475 28.4732C8.03388 30.5152 5.18457 31.866 5.18457 34.5333C5.18457 36.4698 7.28862 37.6688 9.23691 37.6688C11.7485 37.6688 15.541 34.3142 18.3111 28.6631C21.1868 27.5286 24.7617 26.6883 27.5833 26.162C29.8442 27.9006 32.3414 29.5641 33.551 29.5641C36.9002 29.5641 37.6033 27.6276 37.6033 26.0037C37.6033 22.8101 33.9546 22.8101 32.2002 22.8101C31.6554 22.8102 30.1939 22.9712 28.281 23.2917ZM9.23691 34.9672C8.4652 34.9672 7.94282 34.6032 7.88609 34.5333C7.88609 33.5755 10.742 32.2221 13.5043 30.9136C13.6797 30.8305 13.8579 30.7474 14.0386 30.6616C12.0097 33.6034 10.0033 34.9672 9.23691 34.9672ZM18.6924 10.7825C18.6924 7.95165 19.571 7.95165 20.0433 7.95165C20.9983 7.95165 21.3941 7.95165 21.3941 10.6532C21.3941 11.223 21.0142 12.6477 20.3189 14.8718C19.2582 13.2387 18.6924 11.8391 18.6924 10.7825ZM19.7279 25.3007C19.8124 25.066 19.8942 24.8285 19.9733 24.5884C20.4746 23.0846 20.9258 21.7338 21.3281 20.5176C21.8887 21.1349 22.4929 21.7668 23.1406 22.4145C23.3939 22.6677 24.0218 23.2376 24.8582 23.9512C23.1932 24.314 21.4217 24.7638 19.7279 25.3007ZM34.9018 26.0038C34.9018 26.6107 34.9018 26.8625 33.6486 26.8705C33.2806 26.7914 32.4297 26.2902 31.3797 25.5752C31.7609 25.533 32.0419 25.5118 32.2002 25.5118C34.1961 25.5118 34.762 25.707 34.9018 26.0038Z" fill="white"/>
</svg>
