<svg width="42" height="42" viewBox="0 0 42 42" fill="none" xmlns="http://www.w3.org/2000/svg">
<path d="M34.125 0H7.875C3.52576 0 0 3.52576 0 7.875V34.125C0 38.4742 3.52576 42 7.875 42H34.125C38.4742 42 42 38.4742 42 34.125V7.875C42 3.52576 38.4742 0 34.125 0Z" fill="#FF803C"/>
<path d="M34.125 23.625C34.125 16.3763 28.2487 10.5 21 10.5C13.7513 10.5 7.875 16.3763 7.875 23.625" stroke="white" stroke-width="2"/>
<path d="M9.1875 24.9375H6.5625C5.83763 24.9375 5.25 25.5251 5.25 26.25V28.875C5.25 29.5999 5.83763 30.1875 6.5625 30.1875H9.1875C9.91237 30.1875 10.5 29.5999 10.5 28.875V26.25C10.5 25.5251 9.91237 24.9375 9.1875 24.9375Z" fill="white" stroke="white" stroke-width="2"/>
<path d="M22.3125 7.875H19.6875C18.9626 7.875 18.375 8.46263 18.375 9.1875V11.8125C18.375 12.5374 18.9626 13.125 19.6875 13.125H22.3125C23.0374 13.125 23.625 12.5374 23.625 11.8125V9.1875C23.625 8.46263 23.0374 7.875 22.3125 7.875Z" fill="white" stroke="white" stroke-width="2"/>
<path d="M35.4375 24.9375H32.8125C32.0876 24.9375 31.5 25.5251 31.5 26.25V28.875C31.5 29.5999 32.0876 30.1875 32.8125 30.1875H35.4375C36.1624 30.1875 36.75 29.5999 36.75 28.875V26.25C36.75 25.5251 36.1624 24.9375 35.4375 24.9375Z" fill="white" stroke="white" stroke-width="2"/>
</svg>
