<svg width="42" height="42" viewBox="0 0 42 42" fill="none" xmlns="http://www.w3.org/2000/svg">
<path d="M34.125 0H7.875C3.52576 0 0 3.52576 0 7.875V34.125C0 38.4742 3.52576 42 7.875 42H34.125C38.4742 42 42 38.4742 42 34.125V7.875C42 3.52576 38.4742 0 34.125 0Z" fill="#3E3E3E"/>
<path d="M26.25 32.8125H22.0468V15.4908H21.9024L15.8543 23.8406H15.5816L9.61364 15.4908H9.46925L9.45321 32.8125H5.25L5.26604 9.1875H9.43717L15.7259 18.0612L22.0628 9.1875H26.234L26.25 32.8125Z" fill="white"/>
<path d="M32.8125 10.5V31.5L38.0625 26.8333" stroke="white" stroke-width="2.4" stroke-linecap="round" stroke-linejoin="round"/>
</svg>
