<svg width="107" height="30" viewBox="0 0 107 30" fill="none" xmlns="http://www.w3.org/2000/svg">
<path d="M21.3499 10.28L15.7699 19.064L21.3859 29H15.1219L11.3059 22.448L7.23791 29H0.973906L6.87791 19.064L1.11791 10.28H7.30991L11.3419 16.544L15.0139 10.28H21.3499ZM24.2811 10.28V29H29.9691V19.1V18.524C29.9691 16.508 31.4811 14.744 33.2091 14.744C35.0811 14.744 36.3051 16.112 36.3051 18.236V29H41.9931V18.524C41.9931 16.508 43.3971 14.744 45.0531 14.744C46.9971 14.744 48.2571 16.112 48.2571 18.236V29H53.9451V18.164C53.9451 15.104 53.1891 9.56 46.7811 9.56C43.7931 9.56 41.7771 11.036 40.8411 12.764C39.6891 10.676 37.6371 9.56 34.8291 9.56C32.2731 9.56 30.5451 10.604 29.6811 12.08L28.7091 10.28H24.2811ZM56.8901 10.28V29H62.5781V10.28H56.8901ZM56.1341 4.484C56.1341 6.464 57.7541 8.084 59.7701 8.084C61.7141 8.084 63.3341 6.464 63.3341 4.484C63.3341 2.54 61.7141 0.883999 59.7701 0.883999C57.7541 0.883999 56.1341 2.54 56.1341 4.484ZM65.8709 10.28V29H71.5589V18.524C71.5589 16.508 73.0709 14.744 74.7989 14.744C76.7789 14.744 77.8949 16.004 77.8949 18.236V29H83.5829V17.984C83.5829 12.548 81.0269 9.56 76.4189 9.56C73.8629 9.56 72.1349 10.604 71.2709 12.08L70.2989 10.28H65.8709ZM95.3561 29.396C97.5881 29.396 99.6761 28.604 101.296 27.236L102.304 29H106.588V4.736L100.9 2.792V11.396C99.3161 10.244 97.4081 9.56 95.3561 9.56C90.0281 9.56 85.7441 13.988 85.7441 19.496C85.7441 24.968 90.0281 29.396 95.3561 29.396ZM91.3961 19.388C91.3961 16.724 93.5201 14.564 96.2201 14.564C98.9201 14.564 101.08 16.724 101.08 19.388C101.08 22.124 98.9201 24.248 96.2201 24.248C93.5201 24.248 91.3961 22.124 91.3961 19.388Z" fill="black"/>
</svg>
